<svg viewBox="0 0 96 96" xmlns="http://www.w3.org/2000/svg" xmlns:xlink="http://www.w3.org/1999/xlink" id="Icons_DragonDance" overflow="hidden"><circle cx="20.17" cy="56.69" r="3.83" fill="#606B7E"/><circle cx="63.56" cy="56.69" r="3.83" fill="#606B7E"/><path d="M91.77 6.85C90.61 4.59 87.57 3.65 82.5 4 81.9477 4.0359 81.5291 4.51272 81.565 5.065 81.6009 5.61728 82.0777 6.0359 82.63 6 86.7 5.73 89.25 6.34 89.99 7.77 90.73 9.2 89 12 89 12 89.2209 10.7764 89.0088 9.51413 88.4 8.43 86.62 5.76 84.19 6.8 82.4 7.56 80.88 8.21 79.4 8.82 77.99 8.09 77.4957 7.84452 76.896 8.04592 76.65 8.54 76.4045 9.03431 76.6059 9.63405 77.1 9.88 79.39 11.03 81.49 10.12 83.19 9.4 85.19 8.53 85.92 8.35 86.71 9.54 88.07 11.54 85.71 13.45 85.71 13.45 85.71 13.45 78 16.08 77.16 15.89 75.88 15.6 75.04 10.55 72.16 9.61 70.94 9.22 69.23 9.76 67.75 10.44 66.51 8.44 62.56 2.93 55.75 2.93 55.474 2.92221 55.2439 3.13967 55.2361 3.4157 55.2313 3.58414 55.3118 3.74365 55.45 3.84 57.25 5.12 61.74 8.77 62.21 11.07 61.01 11.34 56.93 11.71 52.13 6.07 52.0074 5.93183 51.8218 5.86742 51.64 5.9 51.462 5.9404 51.3202 6.07455 51.27 6.25 51.27 6.31 49.35 12.85 56.92 17.95 54.0336 17.5299 51.3845 16.1151 49.43 13.95 49.2878 13.7825 49.0556 13.7224 48.85 13.8 48.6454 13.8829 48.5194 14.0902 48.54 14.31 48.54 14.61 49.3 21.22 54.54 23.21 53.0158 24.3777 50.997 24.6764 49.2 24 49.004 23.9295 48.7849 23.9804 48.64 24.13 48.5002 24.2822 48.4684 24.5047 48.56 24.69 49.326 26.0926 50.4828 27.2425 51.89 28 52.3233 28.2347 52.7788 28.4257 53.25 28.57 52.573 30.2606 52.3825 32.1068 52.7 33.9 53.38 37.17 56.1 46.02 48.7 46.48 41.3 46.94 41.8 40.08 43.29 36.48 44.78 32.88 48.73 28.48 44.68 24.16 40.63 19.84 32.04 18.67 28.68 22.22 25.32 25.77 25.62 32.14 25.85 34.99 26.21 39.5 22.21 42.5 21.21 37.5 20.02 31.57 25.81 27.99 19.77 25.3 18.3334 24.7169 16.7334 24.6778 15.27 25.19 12 21.25 6.63 26.85 6.63 26.85 8.05793 26.6086 9.52507 26.7785 10.86 27.34 10.33 27.51 9.79 27.7 9.24 27.93 7.13138 28.8736 5.3198 30.374 4 32.27 6.27313 32.67 8.61209 32.4489 10.77 31.63 11.32 31.4 11.84 31.15 12.33 30.9 11.7876 32.243 10.8714 33.4021 9.69 34.24 9.69 34.24 18.37 34.46 16.89 28.36 19.24 28.96 15.63 34.36 16.68 38.81 18.24 45.43 21.51 46.28 25.91 45.38 26.7769 45.2066 27.6021 44.867 28.34 44.38L28.34 71.17 24.92 70 22.34 64C22.2722 63.8148 22.192 63.6344 22.1 63.46L22.1 63.46C21.4286 62.2256 20.1352 61.458 18.73 61.46 18.1656 61.4577 17.6081 61.5843 17.1 61.83L17.1 61.83 10.38 64.47C9.90522 64.6489 9.52053 65.0084 9.31 65.47L6.92 71.26C6.51407 72.2348 6.97522 73.3541 7.95 73.76 8.92478 74.1659 10.0441 73.7048 10.45 72.73L12.53 67.73 14.53 66.96 11.21 83.11 4.82 90.87C4.1489 91.6839 4.26463 92.8877 5.07848 93.5588 5.07899 93.5592 5.07949 93.5596 5.08 93.56 5.41897 93.8445 5.84745 94.0003 6.29 94 6.8634 94.0007 7.40675 93.7437 7.77 93.3L14.47 85.17C14.6661 84.9282 14.8031 84.644 14.87 84.34L16 78.78 21.11 82.53 21.11 92.09C21.1865 93.1476 22.1058 93.943 23.1635 93.8665 24.1147 93.7977 24.8712 93.0412 24.94 92.09L24.94 81.56C24.9488 80.9465 24.6623 80.3661 24.17 80L19.55 76.61 20.84 70.17 21.76 72.27C21.988 72.7484 22.4045 73.1107 22.91 73.27L28.65 75.19C28.8441 75.2524 29.0462 75.2861 29.25 75.29 30.0689 75.2897 30.7984 74.7726 31.07 74 31.3349 73.2074 31.0508 72.3347 30.37 71.85L30.37 71.85 30.37 42.26C31.68 40.09 32.27 36.81 32.22 32.26 32.13 24.17 37.83 25.98 37.82 28.63 37.81 31.28 33.72 38.13 33.44 40.63 33.16 43.13 31.72 49.2 40.36 53.63 48.36 57.75 63.5 56.73 63.27 43.35 63.19 38.87 62.92 35.43 63.54 32.95L63.54 32.95C66.15 29.08 70 31.08 72.24 32L72.24 55.24C72.0614 55.3157 71.8986 55.4242 71.76 55.56L68.76 60.56 65.19 61.47C65.19 61.47 60.82 62.01 60.19 62.47L54.08 66.62C53.6774 66.8927 53.3919 67.3067 53.28 67.78L51.9 74C51.6588 75.0212 52.2911 76.0447 53.3123 76.2859 53.3182 76.2873 53.3241 76.2887 53.33 76.29 53.4727 76.3096 53.6173 76.3096 53.76 76.29 54.6488 76.2896 55.4199 75.676 55.62 74.81L56.89 69.33 58.24 68.42C57.75 71.67 57.24 73.96 57.24 74.42L57.24 83.42 55.24 91.66C54.9791 92.6821 55.5961 93.7222 56.6181 93.9831 56.642 93.9892 56.6659 93.9948 56.69 94 56.8293 94.0196 56.9707 94.0196 57.11 94 58.0147 94.0078 58.8021 93.3829 59 92.5L60.91 83.89C60.9204 83.7869 60.9204 83.6831 60.91 83.58L61.17 78.9 64.3 82.34 64.74 91.23C64.814 92.2376 65.6598 93.0133 66.67 93L66.77 93C67.8214 92.9461 68.631 92.0516 68.58 91L68.11 81.44C68.084 80.9979 67.9076 80.578 67.61 80.25L65.24 76.4C65.24 76.4 65.24 67.4 65.24 67.4L65.69 65.26 70.46 64.04C70.9892 63.9265 71.4443 63.5915 71.71 63.12L74.71 57.87C74.8086 57.6918 74.8794 57.4996 74.92 57.3 75.0536 56.6029 74.7875 55.8894 74.23 55.45L74.23 32.65C76.2662 33.3186 78.344 33.8531 80.45 34.25 80.3494 37.2439 78.6026 39.9372 75.91 41.25 75.91 41.25 82.06 40.95 83.91 36.06 83.91 36.06 85.91 37.2 83.15 41.39 83.15 41.39 88.49 38.75 88.39 33.51 89.1221 33.1673 89.5758 32.4175 89.54 31.61 89.4848 31.038 89.364 30.4743 89.18 29.93 89.1028 29.622 88.8995 29.3607 88.62 29.21 87.27 28.33 83.9 29.13 80.62 28.8L80.52 28.8C79.3859 28.5662 78.298 28.1472 77.3 27.56 75.79 26.38 75.54 24.82 77.24 24.82 79.8 24.82 79.24 23.68 80.94 22.11L80.94 22.11C82.8511 21.5031 84.8026 21.032 86.78 20.7L86.78 23.52C86.7917 23.7129 86.9577 23.8598 87.1506 23.8481 87.2734 23.8406 87.3833 23.7692 87.44 23.66L89 20.25C89.13 20.25 89.58 20.17 89.65 20.16 90.22 20.09 90.65 18.76 90.72 17.27 90.7789 16.3007 90.5968 15.3318 90.19 14.45 91.36 12.7 93.09 9.41 91.77 6.85ZM71.77 18.56C70.6654 18.56 69.77 17.6646 69.77 16.56 69.77 15.4554 70.6654 14.56 71.77 14.56 72.8746 14.56 73.77 15.4554 73.77 16.56 73.7701 17.653 72.8928 18.5436 71.8 18.56Z" fill="#606B7E"/></svg>