<svg viewBox="0 0 96 96" xmlns="http://www.w3.org/2000/svg" xmlns:xlink="http://www.w3.org/1999/xlink" id="Icons_Monkey" overflow="hidden"><path d="M50.79 85.82 62.35 85.82C64.5591 85.82 66.35 84.0291 66.35 81.82 66.35 79.6109 64.5591 77.82 62.35 77.82L54.28 77.82C58.7592 73.4506 58.8483 66.2774 54.4789 61.7982 52.3251 59.5903 49.3643 58.3559 46.28 58.38 42.6 58.48 41.13 59.91 40.18 60.2 39.4213 60.3753 38.6629 59.9069 38.48 59.15 38.3591 58.4162 38.7799 57.7009 39.48 57.45 46.1225 53.5578 54.6626 55.7873 58.5548 62.4298 59.0873 63.3386 59.5151 64.3049 59.83 65.31L67.03 69.12 67.03 72C67.03 74.2091 68.8209 76 71.03 76 73.2391 76 75.03 74.2091 75.03 72L75.03 66.71C75.0514 65.2476 74.273 63.8901 73 63.17L60.81 56.73C66 52.15 70.4 49.37 72 42.65 72.4176 40.1374 72.3258 37.5664 71.73 35.09 71.73 34.3886 72.2986 33.82 73 33.82L83.28 33.82C83.8625 33.813 84.4337 33.6581 84.94 33.37 88.45 31.31 88.48 26.91 88.4 25.54 88.3796 25.2746 88.2823 25.021 88.12 24.81L84.88 20.74 84.88 20.74C84.88 13.51 79 8.89 71.77 8.87 64.6247 8.73466 58.7226 14.4173 58.5873 21.5626 58.5782 22.0424 58.5958 22.5222 58.64 23 58.7067 23.8423 58.1912 24.6217 57.39 24.89 30.59 34.25 26.47 55.57 26.24 66.46 23.73 66.05 23.71 65.16 23.71 63.9L23.71 29.9C23.71 25.4817 20.1283 21.9 15.71 21.9 11.2917 21.9 7.71 25.4817 7.71 29.9L7.71 34.28C7.71 35.9369 9.05315 37.28 10.71 37.28 12.3669 37.28 13.71 35.9369 13.71 34.28L13.71 30C13.71 28.8954 14.6054 28 15.71 28 16.8146 28 17.71 28.8954 17.71 30L17.71 64C17.71 70.66 22.71 72.28 26.88 72.67 28.8 79.88 35.35 85.59 49.59 85.9Z" fill="#606B7E"/></svg>