<svg viewBox="0 0 96 96" xmlns="http://www.w3.org/2000/svg" xmlns:xlink="http://www.w3.org/1999/xlink" id="Icons_Sheep" overflow="hidden"><path d="M84.2 28.2 76.2 21C75.5 20.3 74.5 20 73.5 20L61.1 20C60.1 20 59.2 20.6 59 21.6 58.9 22.2 59.1 22.8 59.5 23.2 59.9 23.7 60.5 23.9 61 23.9L65 23.9 65 24.9 63.2 26.4C60.8 25.2 57.9 26.1 56.6 28.5 55.6 27.4 54.2 26.8 52.7 26.9 51.2 27 49.9 27.7 49 28.9 48.1 27.6 46.6 26.9 45 26.9 43.4 26.9 41.9 27.6 41 28.9 40.1 27.6 38.6 26.9 37 26.9 35.4 26.9 33.9 27.6 33 28.9 32 27.5 30.4 26.8 28.7 26.9 27 27 25.5 28 24.7 29.5 23.4 28.1 21.5 27.6 19.7 28.1 17.9 28.6 16.5 30.1 16.2 31.9L16 31.9C14.1 31.9 12.4 33 11.5 34.7 10.7 36.4 10.8 38.4 12 39.9 10.6 40.9 9.9 42.6 10 44.3 10.1 46 11.2 47.5 12.7 48.3 11.8 49.8 11.8 51.8 12.6 53.3 13.5 55 15.2 56 17 56 17.3 56 17.7 56 18 55.9L18 73C18 74.7 19.3 76 21 76 22.7 76 24 74.7 24 73L24 58.6C25.7 59.3 27.6 59.1 29 58 29.8 59.1 31 59.8 32.3 60 33.6 60.2 35 59.8 36 59 36.8 60.1 38 60.8 39.3 61 40.6 61.2 42 60.8 43 60 43.8 61.1 45 61.8 46.3 62 47.6 62.2 49 61.8 50 61 50.8 62.1 52 62.8 53.3 63 54.6 63.2 56 62.8 57 62L57 73C57 74.7 58.3 76 60 76 61.7 76 63 74.7 63 73L63 61.6C64.5 60.9 65.6 59.5 65.9 57.9 67.6 58.3 69.4 57.8 70.6 56.5 71.8 55.2 72.2 53.4 71.7 51.7 73.1 51.2 74.1 50.1 74.6 48.7 75.1 47.3 74.9 45.8 74.2 44.5 75.7 43.7 76.7 42.3 76.9 40.7 77.1 39.1 76.5 37.4 75.2 36.3 75.8 34.9 76 34 76 34L82.9 34C84.5 34 85.8 32.9 86 31.3 86.1 29.9 84.2 28.2 84.2 28.2Z" fill="#606B7E"/><path d="M28 73C28 74.7 29.3 76 31 76 32.7 76 34 74.7 34 73L34 61.5 28 61 28 73Z" fill="#606B7E"/><path d="M47 73C47 74.7 48.3 76 50 76 51.7 76 53 74.7 53 73L53 64.2 47 63.7 47 73Z" fill="#606B7E"/></svg>