<svg viewBox="0 0 96 96" xmlns="http://www.w3.org/2000/svg" xmlns:xlink="http://www.w3.org/1999/xlink" id="Icons_Tiger" overflow="hidden"><path d="M27.6 70.7C27.6 72.4 28.9 73.7 30.6 73.7 32.3 73.7 33.6 72.4 33.6 70.7L33.6 49.7 27.6 49.7 27.6 70.7Z" fill="#606B7E"/><path d="M93.3 35.3 90.4 31.3 90.5 29.8C90.6 28.8 90.1 27.8 89.3 27.3L85.6 24.9C84.8 24.4 83.8 24.1 82.8 24.1L81.5 24.5 78.7 21.7C77.9 22.7 77.9 24.1 78.6 25.1L78.7 25.2 60.2 30.5C59.6 30.7 59 30.8 58.3 30.8L32.5 30.9 21.7 30.9C16 30.9 11.5 35.5 11.5 41.1 11.5 41.1 11.5 41.1 11.5 41.1L11.5 52.4C11.5 54.6 9.7 56.4 7.5 56.4L7.5 56.4 4.8 56.4C3.8 56.4 3 57.1 2.8 58.1 2.6 59.2 3.4 60.2 4.5 60.4 4.6 60.4 4.7 60.4 4.8 60.4L4.8 60.4 7.6 60.4 7.6 60.4C11.9 59.8 15.6 57.3 15.6 52.9L15.6 41C15.6 38.3 17.3 35.9 19.9 35.1 19.1 36.3 18.4 37.6 18 38.9 17.8 39.5 17.7 40.1 17.7 40.7L17.7 45.2 17.7 70.6C17.7 72.1 18.7 73.4 20.1 73.7 20.3 73.7 20.5 73.8 20.7 73.8 22.4 73.8 23.7 72.5 23.7 70.8L23.7 47.7 34.1 47.7C38.6 56.7 47 57.4 52.3 57.4 53.4 57.4 54.3 57.4 55.1 57.4L55.6 57.4 55.6 70.5C55.6 72.1 56.8 73.5 58.4 73.7L58.6 73.7C60.2 73.7 61.6 72.3 61.6 70.7L61.6 57.2 65.6 57.2 65.6 70.6C65.6 72.1 66.6 73.4 68 73.7 68.2 73.7 68.4 73.8 68.6 73.8 70.3 73.8 71.6 72.5 71.6 70.8L71.6 57.5C71.6 56.4 71.8 55.3 72.3 54.3L75 45.8C75.7 44.3 76.8 43 78.1 42L81.1 39.9C81.4 39.7 81.7 39.6 82.1 39.6 82.3 39.6 82.5 39.6 82.6 39.7L87.2 41.3C87.8 41.6 88.4 41.7 89 41.8 89.4 41.8 89.7 41.7 90 41.5 90.5 41.2 90.7 40.6 90.6 40.1L90.1 38.6 91.4 39 91.6 39C92 39 92.4 38.8 92.7 38.5 93.6 37.2 93.9 36 93.3 35.3ZM69.2 36.8 68.6 38.2 68.7 36.7C69 33.9 69.7 31.1 70.7 28.4L75.7 27C72 30.4 69.2 36.7 69.2 36.8ZM61.5 56.2C60.2 49.2 61.8 40.9 61.8 40.8L62.2 38.9 62.3 40.8C62.3 40.9 62.9 50.5 65.4 56.2L61.5 56.2ZM18.6 66.4 18.6 64.3C19.9 64.9 21.2 65.3 22.6 65.5L22.6 66C21.3 66.4 19.9 66.5 18.6 66.4ZM18.6 57.1 18.6 56.9C20 56.7 21.3 56.4 22.6 55.9L22.6 57.8C21.2 57.7 19.9 57.5 18.6 57.1ZM12.6 57C12 56.6 11.6 56 11.3 55.4L11.4 55.3C12 55.7 12.8 55.9 13.5 56 13.2 56.3 12.9 56.7 12.6 57L12.6 57ZM7 57.4C7.6 58 8.2 58.6 9 58.9 8.5 59 8.1 59.1 7.6 59.2 7.3 58.7 7.1 58 7 57.4L7 57.4ZM12.4 50.8 12.4 49.5C13 49.9 13.7 50.1 14.4 50.2L14.4 50.4C13.8 50.7 13.1 50.8 12.4 50.8L12.4 50.8ZM12.4 44.7 12.4 44.4C13.1 44.2 13.8 43.9 14.4 43.5L14.4 45C13.7 45.1 13 45 12.4 44.7L12.4 44.7ZM14.7 38.8C14 39.1 13.3 39.3 12.5 39.3 12.6 38.9 12.7 38.5 12.8 38.2 13.4 38.5 14.1 38.7 14.7 38.8L14.7 38.8ZM15.6 34C15.9 33.7 16.2 33.5 16.5 33.3 16.8 33.9 17.1 34.5 17.6 35L17.5 35.1C16.8 34.9 16.2 34.5 15.6 34ZM44.4 31.7 47.4 31.7C46.2 34.1 45.3 36.6 44.6 39.1L44.3 40.5 44 39.1C43.8 36.6 44 34.1 44.4 31.7ZM35 31.7 38.1 31.7C36.5 35.3 35.5 39.2 35 43.1L34.9 42.5C34.4 39 34.4 35.3 35 31.7L35 31.7ZM25.5 31.7 27.5 31.7C27.2 33.3 27 34.9 27 36.4L27 37.8 26.6 36.4C26 34.9 25.6 33.4 25.5 31.7L25.5 31.7ZM30.5 39.8 31 39 31 40C31 42.3 31.5 44.6 32.3 46.7L29.6 46.7C29.3 41.8 30.4 40 30.5 39.8L30.5 39.8ZM40.2 49.1 40.4 47.5 40.7 49.1C41 50.8 41.4 52.6 41.9 54.3 41.2 54 40.5 53.6 39.9 53.1 39.9 51.8 40 50.5 40.2 49.1L40.2 49.1ZM48.1 44 48.5 42.4 48.6 44C48.6 44.1 49.1 51.6 51.4 56.4 50.1 56.4 48.8 56.3 47.5 56.1 47.1 52.1 47.3 48 48.1 44ZM56.6 66.3C57.9 66.8 59.2 67.2 60.6 67.3L60.6 67.5C59.3 68 58 68.2 56.6 68.2L56.6 66.3ZM56.6 61 56.6 60.5C58 60.3 59.3 59.9 60.6 59.4L60.6 61.5C59.2 61.5 57.9 61.4 56.6 61L56.6 61ZM58.4 31.7C59.1 31.7 59.8 31.6 60.5 31.3L60.7 31.2C57.8 35.8 56.6 43.7 56.6 43.8L56.3 45.4 56 43.8C55.5 39.8 55.6 35.6 56.5 31.7L58.4 31.7ZM18.8 39.1C18.9 38.6 19.1 38.1 19.4 37.6 19.7 40.4 22.3 42.9 22.3 42.9L23 43.6 22 43.4C20.7 43 19.5 42.4 18.5 41.6L18.5 40.8C18.5 40.3 18.6 39.8 18.7 39.3L18.8 39.1ZM71.4 53.6C69.9 51 68.8 48.2 68 45.2L67.6 43.6 68.4 45C69.6 46.9 71 48.7 72.4 50.4L71.4 53.6ZM77.4 41.2C77 41.5 76.7 41.7 76.4 42 77.2 40.1 77.7 38.1 77.7 36L77.7 34.7 78.2 35.9C78.7 37.2 78.9 38.5 79 39.9L77.4 41.2Z" fill="#606B7E"/></svg>